<svg width="52" height="64" viewBox="0 0 52 64" fill="none" xmlns="http://www.w3.org/2000/svg">
<path d="M13.774 46.1803C16.1095 46.1803 18.0027 44.2663 18.0027 41.9051C18.0027 39.544 16.1095 37.6299 13.774 37.6299C11.4386 37.6299 9.54541 39.544 9.54541 41.9051C9.54541 44.2663 11.4386 46.1803 13.774 46.1803Z" stroke="black" stroke-width="3" stroke-linecap="round" stroke-linejoin="round"/>
<path d="M37.4543 46.1803C39.7897 46.1803 41.683 44.2663 41.683 41.9051C41.683 39.544 39.7897 37.6299 37.4543 37.6299C35.1189 37.6299 33.2257 39.544 33.2257 41.9051C33.2257 44.2663 35.1189 46.1803 37.4543 46.1803Z" stroke="black" stroke-width="3" stroke-linecap="round" stroke-linejoin="round"/>
<path d="M3.48889 51.2911C4.48457 52.125 5.83501 52.5934 7.24312 52.5934L10.6025 52.5933M3.48889 51.2911C2.49321 50.4573 1.93384 49.3264 1.93384 48.1472V29.6353M3.48889 51.2911V60.2887C3.48889 61.1437 4.13273 62.4263 7.0082 62.4263C9.88367 62.4263 10.6025 61.1437 10.6025 60.2887V52.5933M1.93384 29.6353V11.1235C1.93384 6.84826 8.31907 2.14551 26.2485 2.14551C44.1779 2.14551 49.7174 6.42074 49.7174 11.1235V29.6353M1.93384 29.6353H49.7174M49.7174 29.6353V48.1472C49.7174 49.3264 49.158 50.4573 48.1623 51.2911C47.1666 52.125 45.8162 52.5934 44.4081 52.5934L10.6025 52.5933M40.7009 52.5933V60.2887C40.7009 61.1437 41.2601 62.4263 44.2202 62.4263C47.1802 62.4263 47.8145 61.1437 47.8145 60.2887V51.7382M1.93384 12.1923H49.7174" stroke="black" stroke-width="3" stroke-linecap="round" stroke-linejoin="round"/>
</svg>
