<svg width="71" height="70" viewBox="0 0 71 70" fill="none" xmlns="http://www.w3.org/2000/svg">
<path d="M46.7731 11.6396H52.5929C54.1364 11.6396 55.6167 12.2528 56.7081 13.3442C57.7995 14.4356 58.4127 15.9159 58.4127 17.4594V58.198C58.4127 59.7415 57.7995 61.2218 56.7081 62.3132C55.6167 63.4046 54.1364 64.0178 52.5929 64.0178H17.6742C16.1307 64.0178 14.6504 63.4046 13.5589 62.3132C12.4675 61.2218 11.8544 59.7415 11.8544 58.198V17.4594C11.8544 15.9159 12.4675 14.4356 13.5589 13.3442C14.6504 12.2528 16.1307 11.6396 17.6742 11.6396H23.494" stroke="black" stroke-width="3" stroke-linecap="round" stroke-linejoin="round"/>
<path d="M43.8633 5.81982H26.4039C24.7968 5.81982 23.494 7.12263 23.494 8.72972V14.5495C23.494 16.1566 24.7968 17.4594 26.4039 17.4594H43.8633C45.4704 17.4594 46.7732 16.1566 46.7732 14.5495V8.72972C46.7732 7.12263 45.4704 5.81982 43.8633 5.81982Z" stroke="black" stroke-width="3" stroke-linecap="round" stroke-linejoin="round"/>
</svg>
