<svg width="60" height="59" viewBox="0 0 60 59" fill="none" xmlns="http://www.w3.org/2000/svg">
<path d="M27.5585 10.561H10.6198C9.33625 10.561 8.10528 11.0709 7.19767 11.9785C6.29007 12.8861 5.78018 14.1171 5.78018 15.4007V49.278C5.78018 50.5615 6.29007 51.7925 7.19767 52.7001C8.10528 53.6077 9.33625 54.1176 10.6198 54.1176H44.4971C45.7807 54.1176 47.0116 53.6077 47.9192 52.7001C48.8268 51.7925 49.3367 50.5615 49.3367 49.278V32.3393" stroke="black" stroke-width="3" stroke-linecap="round" stroke-linejoin="round"/>
<path d="M45.707 6.93121C46.6697 5.96855 47.9753 5.42773 49.3367 5.42773C50.6981 5.42773 52.0038 5.96855 52.9664 6.93121C53.9291 7.89387 54.4699 9.19952 54.4699 10.5609C54.4699 11.9223 53.9291 13.228 52.9664 14.1906L29.9782 37.1788L20.299 39.5986L22.7188 29.9194L45.707 6.93121Z" stroke="black" stroke-width="3" stroke-linecap="round" stroke-linejoin="round"/>
</svg>
