<svg width="64" height="63" viewBox="0 0 64 63" fill="none" xmlns="http://www.w3.org/2000/svg">
<path d="M58.024 43.9445V51.6634C58.027 52.3799 57.8785 53.0892 57.588 53.7458C57.2975 54.4023 56.8714 54.9917 56.3371 55.4761C55.8028 55.9606 55.172 56.3294 54.4851 56.5589C53.7982 56.7885 53.0704 56.8738 52.3482 56.8093C44.3365 55.949 36.6408 53.2435 29.8792 48.9103C23.5885 44.9599 18.2551 39.6892 14.2577 33.4725C9.85756 26.7602 7.11927 19.118 6.26466 11.165C6.1996 10.4535 6.28517 9.73636 6.51591 9.05932C6.74665 8.38228 7.11752 7.76014 7.6049 7.23251C8.09228 6.70488 8.68549 6.28331 9.34677 5.99466C10.008 5.70601 10.7229 5.55659 11.4458 5.55591H19.2566C20.5201 5.54362 21.7451 5.9858 22.7031 6.80002C23.6612 7.61425 24.2869 8.74496 24.4638 9.9814C24.7934 12.4516 25.4048 14.877 26.2863 17.2114C26.6366 18.1323 26.7124 19.1332 26.5047 20.0954C26.2971 21.0576 25.8147 21.9408 25.1147 22.6404L21.8081 25.908C25.5145 32.3495 30.9114 37.683 37.4296 41.3458L40.7362 38.0781C41.4441 37.3864 42.3378 36.9096 43.3115 36.7044C44.2851 36.4992 45.2979 36.5741 46.2298 36.9203C48.5919 37.7914 51.0462 38.3956 53.5459 38.7214C54.8106 38.8977 55.9656 39.5272 56.7913 40.4903C57.617 41.4533 58.0557 42.6826 58.024 43.9445Z" stroke="black" stroke-width="3" stroke-linecap="round" stroke-linejoin="round"/>
</svg>
