
<svg xmlns="http://www.w3.org/2000/svg" version="1.1" xmlns:xlink="http://www.w3.org/1999/xlink" preserveAspectRatio="none" x="0px" y="0px" width="1080px" height="1080px" viewBox="0 0 1080 1080">
<defs>
<g id="___2_0_Layer0_0_FILL">
<path fill="#896C3F" stroke="none" d="
M 1276.75 910.35
L 1279.2 906.6 1274.1 903.25 1274.25 902.95 1279.75 894.65 1275.65 891.95 1254.5 924 1258.6 926.7 1271.4 907.3 1271.65 907 1271.75 907.05 1276.75 910.35
M 1185.95 811.95
Q 1185.95 808.9 1183.8 806.75 1181.6 804.55 1178.55 804.55 1175.5 804.55 1173.3 806.75 1171.15 808.9 1171.15 811.95 1171.15 815.05 1173.3 817.2 1175.5 819.35 1178.55 819.35 1181.65 819.35 1183.8 817.2 1185.95 815.05 1185.95 811.95
M 1227.55 801.3
Q 1239.6 821.65 1255.85 838.9
L 1255.85 790
Q 1240.25 791.35 1227.55 801.3
M 1254.8 884.65
Q 1250.45 885.5 1248 889.15 1245.6 892.75 1246.6 897.1 1247.6 901.5 1251.15 903.8 1254.7 906.2 1259 905.3 1263.5 904.55 1265.8 900.95 1268.2 897.35 1267.3 892.85 1266.35 888.65 1262.7 886.2 1259.1 883.8 1254.8 884.65
M 1255.65 889.25
Q 1258.05 888.8 1260.05 890.15 1262.1 891.45 1262.55 893.85 1263.15 896.25 1261.8 898.25 1260.6 900.1 1258.15 900.65 1255.65 901.1 1253.75 899.8 1251.75 898.55 1251.2 896.05 1250.75 893.7 1252 891.75 1253.3 889.8 1255.65 889.25
M 1224.05 849.7
Q 1222.7 849.7 1221.55 850.8
L 1216.3 855.4
Q 1215 856.55 1214.9 857.9 1214.9 859.35 1216.05 860.55
L 1220.55 865.7 1217.9 868.05 1217.8 868.1 1217.8 868.05 1217.75 868.1 1217.7 868.05 1207.95 856.95 1204.6 859.9 1212.85 869.3
Q 1211.95 868.95 1210.55 868.8 1206.65 868.4 1203.8 870.95 1201.05 873.4 1201.05 877.25 1201 881.05 1203.5 883.95 1205.95 886.8 1209.85 887.25 1213.8 887.7 1216.45 885.35 1219.35 882.75 1219.35 878.8 1219.4 877.75 1219.15 876.45
L 1227.45 885.85 1230.8 882.9 1220.95 871.75 1223.7 869.3 1230.35 876.85 1233.8 873.8 1220.4 858.55 1220.25 858.35 1220.35 858.2 1223.75 855.25 1223.95 855.1 1224.05 855.2 1237.45 870.4 1240.9 867.35 1226.45 850.95
Q 1225.4 849.7 1224.05 849.7
M 1213.5 875
Q 1214.85 876.5 1214.85 878.5 1214.8 880.45 1213.45 881.65 1212.1 882.85 1210.15 882.65 1208.25 882.45 1206.9 880.9 1205.55 879.35 1205.55 877.4 1205.65 875.5 1206.95 874.3 1208.3 873 1210.2 873.25 1212.15 873.4 1213.5 875
M 1255.85 749.55
L 1255.85 635.25 1198.65 692.4 1255.85 749.55
M 1261 762
L 1261 784.15
Q 1278.35 784.3 1292.75 793.75
L 1261 762
M 1197.8 698.85
Q 1198.6 724.55 1205.45 749.45 1212.3 774.3 1224.7 796.55 1238.7 785.75 1255.85 784.4
L 1255.85 756.85 1197.8 698.85
M 1153.1 739.35
Q 1149.9 740.05 1147.6 741.6 1145.35 743.15 1143.9 745.4 1142.55 747.55 1142.1 750.25 1141.75 752.85 1142.35 755.7
L 1144 763.3 1171.8 757.2 1170.15 749.6
Q 1168.8 743.3 1164.35 740.6 1159.95 737.85 1153.1 739.35
M 1165.8 750.6
L 1166.5 753.75 1147.4 757.9 1146.6 754.35
Q 1146.2 752.55 1146.5 750.9 1146.8 749.3 1147.8 747.85 1148.9 746.35 1150.4 745.45 1152.05 744.4 1154.25 743.95 1156.15 743.5 1157.75 743.5 1160.3 743.5 1162 744.55 1164.85 746.25 1165.8 750.6
M 1165.2 714.75
Q 1165 711.95 1163.7 709.65 1162.45 707.45 1160.3 706 1158.15 704.55 1155.45 703.95 1152.65 703.35 1149.5 703.65 1146.5 703.85 1143.8 704.95 1141.2 706 1139.3 707.75 1137.45 709.5 1136.55 711.95 1135.6 714.45 1135.9 717.2 1136.15 720.15 1137.4 722.3 1138.8 724.5 1140.85 726 1143.05 727.5 1145.75 728 1147.65 728.45 1149.7 728.45 1150.35 728.45 1151.55 728.35 1154.95 728.05 1157.4 727.05 1159.95 726 1161.85 724.25 1163.75 722.35 1164.55 720.05 1165.45 717.7 1165.2 714.75
M 1159.65 711.85
Q 1160.6 713.15 1160.75 715.15 1160.9 717.1 1160.25 718.55 1159.55 720.1 1158.2 721.15 1156.85 722.2 1155.05 722.8 1153.35 723.45 1151.15 723.6 1149.15 723.8 1147.2 723.45 1145.4 723.15 1143.8 722.25 1142.35 721.45 1141.4 720.05 1140.45 718.6 1140.3 716.85 1140.15 715.05 1140.85 713.5 1141.5 712.05 1142.85 710.95 1144.25 709.8 1146 709.2 1147.7 708.6 1149.9 708.35
L 1151.35 708.3
Q 1152.8 708.3 1153.85 708.5 1155.6 708.8 1157.25 709.65 1158.75 710.45 1159.65 711.85
M 1136.2 670.55
L 1136 675.1 1156.6 676.1 1135.5 685.25 1135.2 690.9 1163.65 692.25 1163.85 687.75 1142.8 686.7 1164.4 677.3 1164.65 671.95 1136.2 670.55
M 1145.1 640.35
Q 1145.75 639.05 1146.9 637.9
L 1147.55 637.3 1142.5 636 1142.3 636.3
Q 1141.2 638.05 1140.6 639.5 1140.05 641.05 1139.6 643.4 1139.1 646.15 1139.65 648.9 1140.25 651.5 1141.85 653.7 1143.4 655.85 1145.95 657.3 1148.55 658.8 1151.6 659.3 1153.3 659.65 1155.1 659.65 1156 659.65 1157.7 659.45 1160.55 659 1162.85 657.55 1165.15 656.05 1166.55 653.85 1168 651.6 1168.55 648.6 1169 646 1169 644.1 1168.9 642.1 1168.65 640.75
L 1168.6 640.45 1153.7 637.75 1152 647.35 1156.15 648.1 1157.05 643 1164.45 644.3 1164.45 645.75 1164.15 647.75
Q 1163.85 649.55 1162.85 651 1161.8 652.55 1160.3 653.4 1158.75 654.4 1156.75 654.7 1154.9 655.05 1152.55 654.65 1150.3 654.25 1148.6 653.3 1146.9 652.35 1145.75 650.9 1144.7 649.7 1144.1 647.75 1143.7 646.1 1144 644 1144.45 641.7 1145.1 640.35
M 1162.5 617.25
L 1158.7 616.15 1155.9 625.85 1159.75 626.95 1162.5 617.25
M 1255.85 627.95
L 1255.85 600.35
Q 1238.7 599 1224.7 588.2 1212.3 610.45 1205.45 635.35 1198.6 660.25 1197.8 686
L 1255.85 627.95
M 1261 600.6
L 1261 622.8 1292.95 590.9
Q 1278.5 600.45 1261 600.6
M 1255.85 545.9
Q 1239.6 563.15 1227.55 583.5 1240.15 593.35 1255.85 594.75
L 1255.85 545.9
M 1186.2 590.35
L 1155.75 589.9 1154.1 594 1176.55 614.65 1178.35 610.2 1172.8 605.3 1177 594.7 1184.4 594.9 1186.2 590.35
M 1172.55 594.55
L 1169.45 602.4 1160.15 594.15 1172.55 594.55
M 1167.35 564.8
L 1165.15 568.75 1190.1 582.5 1192.3 578.55 1181.35 572.5 1186.55 563 1197.55 569.05 1199.7 565.1 1174.8 551.35 1172.6 555.3 1182.65 560.85 1177.45 570.35 1167.35 564.8
M 1207.4 505.4
L 1203.5 509.5 1224.05 529.15 1227.2 525.9 1211.95 511.3 1234.45 518.35 1238.15 514.5 1217.55 494.8 1214.4 498.05 1229.35 512.35 1207.4 505.4
M 1194.3 520.65
L 1191.5 524.2 1213.9 541.8 1216.7 538.25 1194.3 520.65
M 1287.65 477.8
L 1291.6 475.55 1277.75 450.7 1273.8 452.9 1287.65 477.8
M 1247.35 469.7
L 1249.85 473.4 1256.25 469.1 1269.65 489.05 1273.4 486.5 1260 466.6 1266.35 462.3 1263.9 458.6 1247.35 469.7
M 1234.85 486.95
Q 1234.7 486.25 1234.85 485.65 1235.1 485 1235.5 484.45 1236.1 483.75 1236.5 483.45 1237.4 482.65 1238.25 482.25 1238.85 481.95 1240.6 481.45
L 1241.25 481.25 1238.75 477.25 1238.4 477.4
Q 1237.05 477.8 1235.8 478.55 1234.8 479.1 1233.5 480.1 1230.75 482.4 1230.2 485.55 1229.75 488.75 1232.15 491.6 1233.3 492.95 1234.5 493.65 1235.7 494.3 1237.05 494.45 1238.45 494.55 1239.45 494.4 1240.95 494.2 1242.2 493.9 1244.8 493.4 1245.7 493.4
L 1245.8 493.4
Q 1246.6 493.45 1247.35 493.8 1248.05 494.1 1248.65 494.8 1249.35 495.75 1249.45 496.4 1249.65 497.2 1249.5 498.05 1249.25 498.9 1248.85 499.5 1248.4 500.2 1247.85 500.65 1247.05 501.3 1245.7 501.95 1244.3 502.5 1243.2 502.8
L 1242.55 503 1245.2 506.95 1245.6 506.8
Q 1247.3 506.2 1248.25 505.7 1249.45 505.2 1250.35 504.35 1251.85 503.15 1252.9 501.6 1253.9 500.15 1254.2 498.5 1254.6 496.8 1254.05 495.05 1253.5 493.25 1252.15 491.6 1250.9 490.15 1249.5 489.35 1248.15 488.6 1246.75 488.45 1245.15 488.3 1244.15 488.4
L 1241.3 488.95
Q 1238.8 489.4 1237.55 489.35 1236.45 489.35 1235.55 488.3 1235 487.6 1234.85 486.95
M 1417.35 934.5
L 1412.75 934.5 1412.75 940.25 1407.15 940.25 1406.6 939.7
Q 1403.6 936.75 1399.4 936.75 1395.3 936.75 1392.25 939.7 1389.15 942.75 1389.15 946.95 1389.15 951.05 1392.25 954.05 1395.35 957 1399.45 957 1403.55 957 1406.55 954.05
L 1406.8 953.8 1412.75 953.8 1412.75 972.6 1417.35 972.6 1417.35 934.5
M 1412.75 949.45
L 1409.4 949.45
Q 1409.7 948.25 1409.7 946.95 1409.7 945.55 1409.45 944.65
L 1412.75 944.65 1412.75 949.45
M 1405.1 946.9
Q 1405.1 949.05 1403.4 950.75 1401.75 952.4 1399.4 952.4 1397.1 952.4 1395.45 950.75 1393.75 949.15 1393.75 946.9 1393.75 944.55 1395.4 942.95 1397 941.3 1399.4 941.3 1401.7 941.3 1403.35 942.95 1405.1 944.55 1405.1 946.9
M 1424.75 934.2
L 1420.1 934.2 1420.1 972.6 1424.75 972.6 1424.75 934.2
M 1369.7 956.4
L 1370.85 952.05 1356.55 948.25 1356.45 948.25 1356.5 948.2 1357.95 942.55 1353.3 941.35 1351.85 946.95 1351.85 947 1351.7 947 1337.45 943.25 1336.3 947.6 1348.55 950.8
Q 1347.35 951.15 1346.25 951.7 1342.85 953.55 1341.85 957.25 1340.9 960.65 1343.05 964 1345.15 967.2 1348.85 968.2 1352.45 969.15 1355.95 967.4 1359.5 965.6 1360.4 962.15 1361.3 958.4 1359.15 955.1 1358.55 954.15 1357.55 953.2
L 1369.7 956.4
M 1355.8 960.75
Q 1355.35 962.5 1353.65 963.4 1351.9 964.3 1349.95 963.8 1348 963.25 1346.9 961.65 1345.85 960 1346.3 958.25 1346.85 956.45 1348.45 955.55 1350.1 954.65 1352.15 955.2 1354.2 955.75 1355.2 957.35 1356.35 959 1355.8 960.75
M 1306.9 935.4
Q 1303.5 933.85 1299.75 935 1296.05 936.3 1294.45 939.75 1293 943.1 1294.55 946.6 1296.05 950.15 1299.55 951.75 1303.1 953.3 1306.7 952.1 1310.4 951 1311.95 947.7 1313.5 944.25 1311.9 940.5 1310.35 937 1306.9 935.4
M 1301.25 939.2
Q 1303.1 938.6 1305 939.45 1306.8 940.3 1307.65 942.1 1308.4 943.9 1307.65 945.55 1306.9 947.2 1305.05 947.8 1303.25 948.4 1301.35 947.55 1299.5 946.7 1298.75 944.95 1298 943.1 1298.7 941.5 1299.55 939.8 1301.25 939.2
M 1311.55 937.25
L 1315.95 939.25 1319.65 931.05 1324.95 933.45 1326.8 929.4 1321.8 927.1 1321.55 926.95 1321.65 926.65 1324.6 920.1 1320.2 918.1 1311.55 937.25
M 1303.15 911.4
L 1298.8 909.45 1292.55 923.2
Q 1291.95 924.65 1292.25 925.9 1292.75 927.25 1294.2 927.9
L 1304.7 932.7
Q 1306.15 933.35 1307.45 932.65 1308.55 932.05 1309.25 930.6
L 1315.4 917 1311.1 915.05 1309 919.7 1308.85 919.65 1301.3 916.2 1301.05 916.05 1301.1 915.9 1303.15 911.4
M 1307.1 923.8
L 1307 924.1 1305.35 927.7 1305.15 927.95 1305.1 927.9 1297.55 924.5 1297.35 924.35 1297.35 924.3 1297.4 924.05 1299.15 920.2 1307.1 923.8
M 1358.75 929.95
L 1342.45 939.3 1345 943.4 1357.1 936.35 1364.35 948.45 1368.6 946.3 1358.75 929.95
M 1341.8 842.8
L 1310.05 811
Q 1319.5 825.5 1319.65 842.8
L 1341.8 842.8
M 1314.3 842.8
Q 1314.15 820.85 1298.55 805.25 1283 789.7 1261 789.5
L 1261 842.8 1314.3 842.8
M 1319.4 847.95
Q 1318.05 865.2 1307.25 879.1 1329.45 891.55 1354.35 898.4 1379.2 905.2 1405 906
L 1346.95 847.95 1319.4 847.95
M 1302.55 876.25
Q 1312.4 863.55 1313.85 847.95
L 1264.9 847.95
Q 1282.05 864.1 1302.55 876.25
M 1562.6 904.45
Q 1563.5 900.55 1561.5 897.65 1559.9 895.3 1557.15 894.4
L 1560.25 892.3 1557.7 888.55 1550.05 893.8 1550 893.85 1549.95 893.8 1547.65 890.4 1543.7 893.1 1546 896.5 1546.05 896.55 1545.95 896.6 1538.35 901.85 1540.9 905.55 1544.15 903.35
Q 1544.05 906.2 1545.7 908.5 1547.7 911.45 1551.6 912 1555.45 912.55 1558.6 910.35 1561.7 908.25 1562.6 904.45
M 1554.5 898.45
Q 1556.45 898.65 1557.5 900.2 1558.5 901.75 1558.05 903.6 1557.6 905.45 1555.95 906.65 1554.2 907.8 1552.35 907.5 1550.4 907.3 1549.4 905.8 1548.3 904.2 1548.75 902.4 1549.1 900.6 1550.9 899.35 1552.55 898.25 1554.5 898.45
M 1579.65 916.15
L 1583.6 913.4 1577.45 904.45
Q 1576.55 903.15 1575.35 902.75 1574 902.45 1572.6 903.35
L 1554.45 915.85 1557.05 919.65 1573.6 908.25
Q 1573.85 908.05 1574 908.05
L 1574.3 908.35 1579.65 916.15
M 1481.95 963.75
L 1481.1 959.9 1458.95 964.6 1458.85 964.65 1458.8 964.6 1458.4 962.8 1458.35 962.45 1458.45 962.4 1476.9 958.45
Q 1478 958.2 1478.65 957.45 1479.65 956.35 1479.2 954.45
L 1478.3 950.1
Q 1477.85 948.2 1475.8 948.6
L 1467.3 950.4 1466.8 948.3 1466.8 948.15 1467 948.15 1481.5 945.05 1480.7 941.25 1446.9 948.45 1447.7 952.3 1461.95 949.25 1462 949.2 1462.15 949.2 1462.15 949.3 1462.6 951.4 1452.15 953.65 1452.95 957.5 1473.7 953.1
Q 1473.85 953 1473.95 953.1
L 1474.05 953.35 1474.35 954.65
Q 1474.4 954.9 1474.35 955
L 1474.35 955.05 1454.85 959.25
Q 1453 959.65 1453.4 961.6
L 1454.35 966
Q 1454.65 967.45 1455.65 968.2 1456.8 969.1 1458.4 968.8
L 1481.95 963.75
M 1475.65 937.25
L 1460.1 928.35 1449.9 942.75 1453.65 945.25 1461.4 934.25 1473.2 941.05 1475.65 937.25
M 1513.25 912.1
L 1509.05 913.95 1518.4 935.1
Q 1516.8 936.05 1514.05 937.4 1511.55 938.7 1510.35 939.2
L 1506.1 941.1 1499.35 925.9 1508.25 921.95 1506.4 917.75 1496.15 922.3
Q 1494.85 922.8 1494.3 924 1493.8 925.2 1494.4 926.5
L 1502.05 943.75
Q 1502.7 945.25 1504 945.75 1505.35 946.45 1507 945.65
L 1512.2 943.4
Q 1514.6 942.25 1515.9 941.5 1519.3 939.75 1520.2 939.2
L 1524.45 948.8 1528.65 946.95 1519.35 925.9 1519.3 925.75 1522.2 924.45 1522.2 924.5 1531.55 945.65 1535.8 943.75 1520.3 908.65 1516.05 910.55 1520.4 920.45 1517.5 921.7 1513.25 912.1
M 1481 842.8
L 1503.2 842.8
Q 1503.3 825.6 1512.8 811
L 1481 842.8
M 1524.3 805.25
Q 1508.7 820.85 1508.55 842.8
L 1561.85 842.8 1561.85 789.5
Q 1539.85 789.7 1524.3 805.25
M 1509 847.95
Q 1510.35 863.55 1520.3 876.25 1540.65 864.2 1557.9 847.95
L 1509 847.95
M 1515.55 879.1
Q 1504.8 865.05 1503.45 847.95
L 1475.85 847.95 1417.8 906
Q 1443.6 905.2 1468.45 898.4 1493.35 891.55 1515.55 879.1
M 1567 838.9
Q 1583.1 821.85 1595.3 801.25 1582.6 791.35 1567 790
L 1567 838.9
M 1600.55 855.75
Q 1600.65 855.7 1600.6 855.65
L 1613.05 867.2 1616.4 863.6 1603.1 851.25
Q 1602.2 850.45 1600.85 850.35 1599.5 850.35 1598.6 851.3
L 1583.05 868 1586.3 871.05 1600.55 855.75
M 1574 889.15
L 1571.45 885.45 1566.95 888.55 1566.7 888.65
Q 1566.6 888.65 1566.45 888.45
L 1561.95 881.85 1557.95 884.55 1570.2 902.45 1574.2 899.7 1569.2 892.4 1569.4 892.3 1574 889.15
M 1626.75 867.9
L 1623.45 864.85 1615.05 873.85 1614.95 873.9 1614.85 873.85 1604.3 864 1601.05 867.5 1611.7 877.4 1611.65 877.5 1608.95 880.4 1608.8 880.3 1598.25 870.5 1595 874.05 1605.65 883.95 1600.9 889.05 1604.2 892.15 1626.75 867.9
M 1648.45 816.6
Q 1648.45 813.55 1646.3 811.35 1644.15 809.2 1641.05 809.2 1638 809.2 1635.8 811.35 1633.65 813.55 1633.65 816.6 1633.65 819.65 1635.8 821.8 1638 824 1641.05 824 1644.1 824 1646.3 821.8 1648.45 819.65 1648.45 816.6
M 1656.2 754.85
Q 1656.45 753.85 1657.2 752.55 1658.1 751.15 1658.7 750.4
L 1659.15 749.85 1654.65 748.25 1654.45 748.55
Q 1653.5 749.85 1652.9 751 1652.3 752.1 1652 753.35 1651.55 755.3 1651.55 757.05 1651.65 758.85 1652.3 760.35 1653.1 762 1654.5 763.05 1655.9 764.15 1658.05 764.7 1659.75 765.2 1661.5 765 1663 764.8 1664.3 764.1 1665.5 763.45 1666.4 762.6 1667.9 761.1 1668.4 760.5 1669.95 758.8 1671.15 757.95 1672.15 757.35 1673.4 757.65 1674.25 757.85 1674.8 758.35 1675.35 758.85 1675.5 759.4 1675.75 760.1 1675.7 760.7 1675.7 761.5 1675.5 762.15 1675.2 763.35 1674.75 764.1 1674.25 765.05 1673.35 766.2
L 1672.95 766.7 1677.3 768.45 1677.55 768.15
Q 1678.45 766.95 1678.95 765.7 1679.45 764.65 1679.9 763.1 1680.8 759.6 1679.35 756.75 1677.8 753.85 1674.25 752.95 1672.65 752.55 1671.15 752.7 1669.8 752.9 1668.6 753.55 1667.55 754.2 1666.65 755
L 1664.75 757
Q 1662.9 759.05 1662.1 759.55 1661.35 760 1660.6 760.15 1659.95 760.3 1659 760.05 1658.05 759.85 1657.4 759.25 1656.8 758.7 1656.45 757.95 1656.1 757.25 1656.1 756.4 1656.05 755.7 1656.2 754.85
M 1682.2 724.45
L 1681.05 732.05 1657.3 728.5 1656.6 732.95 1680.35 736.5 1679.25 744.1 1683.65 744.8 1686.6 725.1 1682.2 724.45
M 1688 703.9
L 1688.25 697.35 1659.8 696.15 1659.65 700.65 1671.8 701.2 1671.75 702.8
Q 1671.65 704.45 1671.3 705.1 1670.8 705.8 1669.25 706.4
L 1659.25 709.9 1659 715 1670.85 710.55
Q 1672.25 709.95 1672.9 709.45
L 1673.4 708.95
Q 1673.95 710.75 1675.25 711.9 1676.9 713.5 1679.65 713.65
L 1680.25 713.65
Q 1682.4 713.65 1683.75 713 1685.4 712.2 1686.3 710.8 1687.2 709.4 1687.55 707.7 1687.95 706.05 1688 703.9
M 1683.5 704.6
Q 1683.45 706.8 1682.4 707.9 1681.5 708.9 1679.95 708.9
L 1679.75 708.9
Q 1678.05 708.85 1677.05 707.55 1676.1 706.2 1676.15 703.9
L 1676.3 701.35 1683.65 701.7 1683.5 704.6
M 1657.9 661.65
L 1658.3 666.4 1665.4 668.4 1666.3 679.75 1659.55 682.8 1659.95 687.75 1687.5 674.7 1687.15 670.3 1657.9 661.65
M 1670.4 677.95
L 1669.7 669.55 1681.65 672.85 1670.4 677.95
M 1677.25 617.15
L 1675.15 609.65 1647.75 617.35 1649.85 624.85
Q 1651.6 631.05 1656.15 633.5 1658.65 634.9 1662.05 634.9 1664.6 634.9 1667.45 634.1 1670.45 633.3 1672.75 631.55 1675.05 629.8 1676.25 627.55 1677.55 625.25 1677.75 622.6 1678.05 620.05 1677.25 617.15
M 1669.8 627.85
Q 1668.3 628.9 1666 629.55 1661.2 630.9 1658.25 629.4 1655.3 627.9 1654.1 623.6
L 1653.25 620.5 1672.05 615.25 1673.05 618.75
Q 1673.6 620.5 1673.35 622.15 1673.1 623.85 1672.25 625.3 1671.3 626.8 1669.8 627.85
M 1636.1 587.95
L 1637.9 592.15 1657.35 583.95 1641.95 601.8 1644 606.7 1670.25 595.65 1668.5 591.5 1649.45 599.5 1664.55 582.1 1662.35 576.9 1636.1 587.95
M 1651.7 556.65
L 1649.5 552.85 1619.35 557.65 1621.8 561.8 1629.05 560.5 1634.75 570.35 1630.05 576 1632.5 580.3 1651.7 556.65
M 1637.65 566.95
L 1633.45 559.65 1645.65 557.45 1637.65 566.95
M 1567 635.25
L 1567 749.55 1624.15 692.4 1567 635.25
M 1561.85 754.7
L 1561.85 630.15 1411.4 479.7 1261 630.1 1261 754.7 1411.4 905.1 1561.85 754.7
M 1372.9 554.85
L 1372.9 533 1379.45 533
Q 1381.8 533 1384 533.7 1386.2 534.5 1387.7 535.85 1389.35 537.35 1390.2 539.25 1391.1 541.3 1391.1 543.75 1391.1 549.15 1388 552 1384.95 554.85 1379.45 554.85
L 1372.9 554.85
M 1423.65 533
L 1429.2 533 1429.2 554.85 1425.6 554.85 1425.6 537.5 1418.95 554.85 1415.55 554.85 1408.9 537.5 1408.9 554.85 1405.3 554.85 1405.3 533 1410.8 533 1417.3 550.2 1423.65 533
M 1442.05 533
L 1445.6 533 1454.85 554.85 1450.95 554.85 1448.75 549.5 1438.7 549.5 1436.5 554.85 1432.7 554.85 1442.05 533
M 1396.2 533
L 1399.85 533 1399.85 554.85 1396.2 554.85 1396.2 533
M 1298.7 631.8
Q 1315.65 623.4 1328.2 610.75 1346.3 592.55 1351.85 568.65
L 1472.7 568.65
Q 1477.95 591.25 1494.45 608.8 1506.3 621.35 1522.65 630.15 1520.7 673.55 1514.8 697.95 1503.85 742.6 1482.15 774.35 1473.95 786.4 1464.1 796.5
L 1435.45 742.7
Q 1433.85 739.5 1430.25 739.5
L 1391.55 739.5
Q 1387.95 739.5 1386.35 742.7
L 1357.5 796.85
Q 1347.5 786.65 1339.1 774.35 1317.3 742.35 1306.5 697.95 1300.75 674.25 1298.7 631.8
M 1409.9 830.6
Q 1394.7 825.15 1381.15 816.3
L 1410.9 760.4 1440.55 816.05
Q 1426.7 825.1 1411.35 830.6 1411 830.75 1410.65 830.75
L 1409.9 830.6
M 1414.25 849.5
Q 1414.25 846.25 1415.95 844.4 1417.7 842.5 1420.35 842.5 1422.2 842.5 1423.5 843.35 1424.8 844.25 1425.5 845.7 1426.25 847.3 1426.45 848.9 1426.75 850.65 1426.75 852.65 1426.75 854.75 1426.35 857 1426 858.9 1425.1 860.7 1424.2 862.4 1422.7 863.35 1421.15 864.35 1419.05 864.35 1417.9 864.35 1416.85 864.15 1415.6 863.9 1415.1 863.7
L 1415.5 861
Q 1417.05 861.85 1418.85 861.85 1420.2 861.85 1421.15 861.25 1422.05 860.7 1422.8 859.55 1423.5 858.45 1423.8 857.1 1424.15 855.85 1424.15 854.2
L 1424.1 854.2
Q 1423.2 855.25 1422.15 855.7 1421.2 856.15 1419.95 856.15 1417.25 856.15 1415.75 854.3 1414.25 852.45 1414.25 849.5
M 1407.95 848.9
Q 1408.2 850.35 1408.2 852.65 1408.2 855.05 1407.85 857 1407.5 859 1406.55 860.7 1405.7 862.35 1404.2 863.35 1402.6 864.35 1400.5 864.35 1399.4 864.35 1398.35 864.15 1397.15 863.95 1396.6 863.7
L 1396.95 861
Q 1398.5 861.85 1400.35 861.85 1401.6 861.85 1402.65 861.25 1403.55 860.7 1404.3 859.55 1404.9 858.6 1405.3 857.1 1405.65 855.55 1405.65 854.2
L 1405.6 854.2
Q 1404.65 855.25 1403.65 855.7 1402.6 856.15 1401.45 856.15 1398.75 856.15 1397.25 854.3 1395.7 852.45 1395.7 849.5 1395.7 846.3 1397.45 844.4 1399.2 842.5 1401.8 842.5 1403.7 842.5 1405 843.35 1406.3 844.25 1406.95 845.7 1407.65 847 1407.95 848.9
M 1389.05 842.85
L 1389.05 864 1386.3 864 1386.3 846.35 1383.4 849.15 1381.95 847.1 1386.65 842.85 1389.05 842.85
M 1442.9 842.85
L 1442.9 845.35 1435.85 864 1432.85 864 1440.1 845.35 1430.85 845.35 1430.85 842.85 1442.9 842.85
M 1402 845
Q 1400.35 845 1399.5 846.3 1398.6 847.6 1398.6 849.45 1398.6 851.05 1399.45 852.35 1400.25 853.65 1401.8 853.65 1403.45 853.65 1404.4 852.45 1405.35 851.2 1405.35 849.45 1405.35 847.75 1404.45 846.4 1403.55 845 1402 845
M 1420.5 845
Q 1418.85 845 1418 846.3 1417.1 847.6 1417.1 849.45 1417.1 851.05 1417.95 852.35 1418.75 853.65 1420.3 853.65 1421.95 853.65 1422.9 852.45 1423.85 851.3 1423.85 849.45 1423.85 847.75 1422.95 846.4 1422.05 845 1420.5 845
M 1444.5 660.7
Q 1440.85 660.7 1439.15 663.85
L 1410.75 714.75 1382.35 663.85
Q 1380.65 660.7 1376.95 660.7
L 1335.4 660.7
Q 1333.4 660.7 1332.3 661.75 1331.15 662.75 1331.15 664.55
L 1331.15 748.6
Q 1331.15 750.45 1332.3 751.45 1333.4 752.45 1335.4 752.45
L 1355.15 752.45
Q 1357.15 752.45 1358.25 751.45 1359.4 750.45 1359.4 748.6
L 1359.4 678.9 1385.05 724.85
Q 1386.75 728 1390.4 728
L 1431.1 728
Q 1434.75 728 1436.45 724.85
L 1462.1 678.9 1462.1 748.6
Q 1462.1 750.45 1463.25 751.45 1464.35 752.45 1466.35 752.45
L 1486.05 752.45
Q 1488.05 752.45 1489.15 751.45 1490.3 750.45 1490.3 748.6
L 1490.3 664.55
Q 1490.3 662.75 1489.15 661.75 1488.05 660.7 1486.05 660.7
L 1444.5 660.7
M 1364.1 582
Q 1363.1 583 1363.1 584.75
L 1363.1 645.2
Q 1363.1 646.95 1364.1 647.95 1365.1 648.95 1366.85 648.95
L 1394.75 648.95
Q 1409.75 648.95 1420.35 639.05 1431.05 629.1 1431.05 615 1431.05 600.9 1420.35 590.9 1409.75 581 1394.75 581
L 1366.85 581
Q 1365.1 581 1364.1 582
M 1386.55 627.5
L 1386.55 602.45 1392.75 602.45
Q 1399 602.45 1403.35 606.2 1407.6 609.85 1407.6 615 1407.6 620.1 1403.35 623.75 1399 627.5 1392.75 627.5
L 1386.55 627.5
M 1461.45 585.2
Q 1461.45 583.35 1460.45 582.35 1459.4 581.35 1457.6 581.35
L 1441.9 581.35
Q 1440.05 581.35 1439.05 582.35 1438.05 583.35 1438.05 585.2
L 1438.05 644.8
Q 1438.05 646.6 1439.05 647.65 1440.05 648.65 1441.9 648.65
L 1457.6 648.65
Q 1459.4 648.65 1460.45 647.65 1461.45 646.6 1461.45 644.8
L 1461.45 585.2
M 1439.9 546.4
L 1447.55 546.4 1443.75 536.9 1439.9 546.4
M 1376.5 536.25
L 1376.5 551.6 1379.4 551.6
Q 1383.35 551.6 1385.3 549.7 1387.3 547.85 1387.3 543.85 1387.3 542.15 1386.75 540.65 1386.05 539.1 1385.15 538.25 1384.1 537.3 1382.75 536.75 1381.45 536.25 1379.8 536.25
L 1376.5 536.25
M 1561.85 784.15
L 1561.85 762 1530.05 793.8
Q 1544.5 784.3 1561.85 784.15
M 1567 756.85
L 1567 784.4
Q 1584.2 785.8 1598.1 796.55 1610.5 774.35 1617.35 749.5 1624.2 724.6 1625 698.85
L 1567 756.85
M 1561.85 622.85
L 1561.85 600.6
Q 1544.3 600.45 1529.9 590.9
L 1561.85 622.85
M 1567 600.35
L 1567 628 1625 686
Q 1624.2 660.25 1617.35 635.35 1610.5 610.45 1598.1 588.25 1584.1 599 1567 600.35
M 1341.9 541.95
L 1319.65 541.95
Q 1319.5 559.45 1309.95 573.9
L 1341.9 541.95
M 1298.55 579.5
Q 1314.15 563.95 1314.3 541.95
L 1261 541.95 1261 595.25
Q 1283 595.1 1298.55 579.5
M 1313.85 536.8
Q 1312.4 521.1 1302.55 508.55 1282.25 520.55 1264.95 536.8
L 1313.85 536.8
M 1307.3 505.7
Q 1318.05 519.75 1319.4 536.8
L 1347.05 536.8 1405 478.85
Q 1379.25 479.6 1354.4 486.45 1329.5 493.25 1307.3 505.7
M 1300.85 444.3
L 1307.85 441.15 1306.05 437.1 1287.85 445.25 1289.7 449.35 1296.7 446.2 1306.55 468.1 1310.7 466.25 1300.85 444.3
M 1341.6 442.5
L 1336.55 426.65 1332.25 428.05 1337.1 443.35
Q 1338.35 447.25 1337.75 449.8 1337.25 452.15 1334.35 453.05 1331.5 453.95 1329.7 452.35 1327.8 450.75 1326.5 446.75
L 1321.65 431.4 1317.3 432.8 1322.35 448.6
Q 1324.15 454.25 1327.6 456.5 1329.8 457.9 1332.3 457.9 1333.9 457.9 1335.7 457.3 1340.35 455.9 1341.85 451.95 1343.45 448.15 1341.6 442.5
M 1368.7 424.25
L 1367.85 419.85 1348.3 423.65 1349.15 428.05 1356.7 426.55 1361.3 450.15 1365.75 449.3 1361.15 425.7 1368.7 424.25
M 1394.6 417.05
L 1379.85 418.35 1382.3 446.7 1397.1 445.4 1396.7 440.95 1386.45 441.85 1385.75 433.85 1395.1 433 1394.7 428.6 1385.35 429.4 1384.75 422.4 1395 421.5 1394.6 417.05
M 1443.5 418.25
Q 1441.25 416.9 1438.4 416.6 1435.55 416.3 1433.15 417.2 1430.65 418.15 1428.9 419.9 1427.2 421.6 1426 424.3 1424.9 427.1 1424.6 430 1424.3 433.4 1424.85 435.95 1425.4 438.75 1426.8 440.85 1428.25 443.05 1430.4 444.3 1432.6 445.6 1435.45 445.9
L 1436.95 445.95
Q 1439.05 445.95 1440.75 445.35 1443.15 444.55 1445 442.7 1446.75 440.95 1447.9 438.25 1448.9 435.8 1449.3 432.5 1449.6 429.45 1449.05 426.65 1448.5 423.85 1447.1 421.75 1445.7 419.6 1443.5 418.25
M 1434.65 421.5
Q 1435.9 421 1437.15 421 1437.7 421 1437.95 421.05 1439.75 421.2 1441.15 422.2 1442.55 423.15 1443.3 424.65 1444.15 426.2 1444.45 428.05 1444.75 430.05 1444.55 432 1444.3 434.2 1443.7 435.85 1443.1 437.6 1441.95 439 1440.95 440.3 1439.35 441 1437.85 441.6 1435.9 441.45 1433.9 441.2 1432.65 440.3 1431.25 439.4 1430.5 437.85 1429.7 436.45 1429.4 434.45 1429.1 432.65 1429.35 430.5 1429.5 428.45 1430.2 426.65 1430.9 424.85 1432 423.5 1433.1 422.15 1434.65 421.5
M 1595.25 583.5
Q 1583.3 563.35 1567 545.95
L 1567 594.75
Q 1582.65 593.35 1595.25 583.5
M 1592.4 522.65
L 1599.25 519.95 1606.8 528.55 1603.25 535 1606.5 538.7 1620.75 511.8 1617.85 508.5 1589.25 519.05 1592.4 522.65
M 1603.4 518.3
L 1614.95 513.8 1609 524.65 1603.4 518.3
M 1503.2 541.95
L 1480.95 541.95 1512.9 573.9
Q 1503.3 559.3 1503.2 541.95
M 1508.55 541.95
Q 1508.7 563.95 1524.3 579.5 1539.9 595.1 1561.85 595.25
L 1561.85 541.95 1508.55 541.95
M 1520.5 508.1
L 1520.15 507.9 1519.85 508.25
Q 1509.95 520.85 1508.5 536.75
L 1508.45 537.3 1559.15 537.3 1558.2 536.45
Q 1541 520.25 1520.5 508.1
M 1503.45 536.8
Q 1504.85 519.6 1515.55 505.7 1493.35 493.3 1468.5 486.45 1443.6 479.6 1417.85 478.85
L 1475.8 536.8 1503.45 536.8
M 1464.9 437.35
L 1473.85 439.3 1474.8 434.95 1465.85 433 1467.35 426.1 1476.75 428.15 1477.7 423.8 1463.85 420.8 1457.75 448.6 1462.2 449.55 1464.9 437.35
M 1534 444.25
L 1527.85 441.6 1512.55 458.65 1514.4 435.75 1508.25 433.1 1496.95 459.2 1501.1 461 1509.65 441.25 1507.9 463.95 1511.75 465.6 1527.1 448.85 1518.5 468.55 1522.7 470.35 1534 444.25
M 1602.25 492.35
L 1598.9 489.25 1579.45 510.05 1582.75 513.15 1602.25 492.35
M 1554.55 489.65
L 1560.75 494.45
Q 1565 497.7 1569.35 497.7 1569.95 497.7 1570.95 497.6 1576.15 496.85 1580.4 491.3 1582.35 488.75 1583.1 486.05 1583.85 483.3 1583.5 480.75 1583.1 478.05 1581.75 475.9 1580.45 473.65 1578.1 471.85
L 1571.9 467.1 1554.55 489.65
M 1575.7 475.65
Q 1577.05 476.65 1577.95 478.2 1578.8 479.65 1578.95 481.35 1579.1 483.1 1578.5 484.9 1577.85 486.85 1576.55 488.5 1573.5 492.5 1570.2 493.05 1566.95 493.55 1563.4 490.85
L 1560.85 488.9 1572.8 473.4 1575.7 475.65
M 1549.1 457.85
L 1557.95 463.15 1560.25 459.35 1547.5 451.7 1532.85 476.1 1545.6 483.75 1547.9 479.95 1539.05 474.65 1543.2 467.7 1551.25 472.55 1553.55 468.7 1545.5 463.9 1549.1 457.85 Z"></path>
</g>
</defs>

<g transform="matrix( 1.8062286376953125, 0, 0, 1.8062286376953125, 540,540) ">
<g transform="matrix( 1, 0, 0, 1, -1411.7,-694.55) ">
<use xlink:href="#___2_0_Layer0_0_FILL"></use>
</g>
</g>
</svg>
